<svg xmlns="http://www.w3.org/2000/svg" xmlns:xlink="http://www.w3.org/1999/xlink" width="500" zoomAndPan="magnify" viewBox="0 0 375 374.999991" height="500" preserveAspectRatio="xMidYMid meet" version="1.0"><defs><g/><clipPath id="19c3ee6f57"><path d="M 61 105 L 364 105 L 364 286 L 61 286 Z M 61 105 " clip-rule="nonzero"/></clipPath><clipPath id="a82f43ab9f"><path d="M 60.476562 92.691406 L 362.617188 84.632812 L 367.894531 282.5625 L 65.753906 290.621094 Z M 60.476562 92.691406 " clip-rule="nonzero"/></clipPath><clipPath id="0b69d0f0d0"><path d="M 60.476562 92.691406 L 362.617188 84.632812 L 367.894531 282.5625 L 65.753906 290.621094 Z M 60.476562 92.691406 " clip-rule="nonzero"/></clipPath><clipPath id="ba1091d4e2"><path d="M 60.980469 111.59375 L 362.757812 103.550781 L 367.523438 282.292969 L 65.746094 290.335938 Z M 60.980469 111.59375 " clip-rule="nonzero"/></clipPath><clipPath id="d49f4c1af1"><path d="M 60.980469 111.59375 L 362.757812 103.550781 L 367.523438 282.28125 L 65.746094 290.328125 Z M 60.980469 111.59375 " clip-rule="nonzero"/></clipPath><clipPath id="ac2571a2bc"><path d="M 61 89 L 278 89 L 278 148 L 61 148 Z M 61 89 " clip-rule="nonzero"/></clipPath><clipPath id="3261ca5412"><path d="M 60.476562 92.691406 L 362.617188 84.632812 L 367.894531 282.5625 L 65.753906 290.621094 Z M 60.476562 92.691406 " clip-rule="nonzero"/></clipPath><clipPath id="5c33d9edb7"><path d="M 60.476562 92.691406 L 362.617188 84.632812 L 367.894531 282.5625 L 65.753906 290.621094 Z M 60.476562 92.691406 " clip-rule="nonzero"/></clipPath></defs><rect x="-37.5" width="450" fill="#ffffff" y="-37.499999" height="449.999989" fill-opacity="1"/><rect x="-37.5" width="450" fill="#ffffff" y="-37.499999" height="449.999989" fill-opacity="1"/><g clip-path="url(#19c3ee6f57)"><g clip-path="url(#a82f43ab9f)"><g clip-path="url(#0b69d0f0d0)"><g clip-path="url(#ba1091d4e2)"><g clip-path="url(#d49f4c1af1)"><path fill="#6f4323" d="M 295.980469 224.308594 C 306.734375 203.820312 313.800781 179.796875 316.042969 153.492188 L 316.046875 153.492188 C 327.328125 141.949219 348.214844 136.277344 337.316406 172.773438 C 329.875 197.703125 308.671875 215.519531 295.980469 224.308594 Z M 353.617188 123.160156 C 333.320312 108.425781 316.734375 129.402344 316.734375 129.402344 L 316.476562 129.417969 C 316.625 128.535156 316.691406 127.648438 316.664062 126.761719 C 316.453125 118.714844 309.105469 111.394531 296.558594 105.355469 C 300.121094 109.007812 302.085938 112.921875 302.195312 117.027344 C 302.808594 140.007812 245.007812 160.1875 173.09375 162.105469 C 126.359375 163.351562 85.164062 156.578125 61.878906 145.371094 C 78.269531 162.175781 128.488281 173.414062 187.5625 171.839844 C 224.515625 170.855469 257.742188 165.046875 281.230469 156.515625 C 281.933594 210.316406 262.902344 256.621094 232.710938 285.875 C 252.210938 277.386719 269.4375 263.214844 283.144531 244.777344 C 361.179688 214.519531 377.9375 140.816406 353.617188 123.160156 " fill-opacity="1" fill-rule="nonzero"/></g></g></g></g></g><g clip-path="url(#ac2571a2bc)"><g clip-path="url(#3261ca5412)"><g clip-path="url(#5c33d9edb7)"><path fill="#6f4323" d="M 73.359375 130.253906 C 72.867188 111.800781 125.113281 95.433594 190.050781 93.703125 C 224.789062 92.777344 256.125 96.226562 277.832031 102.460938 C 256.734375 93.675781 219.859375 88.453125 178.054688 89.566406 C 113.117188 91.296875 60.875 107.664062 61.367188 126.121094 C 61.597656 134.703125 73.1875 142.222656 92.054688 147.644531 C 80.382812 142.78125 73.535156 136.828125 73.359375 130.253906 " fill-opacity="1" fill-rule="nonzero"/></g></g></g><g fill="#6f4323" fill-opacity="1"><g transform="translate(48.382835, 215.466045)"><g><path d="M 24.320312 3.332031 C 34.207031 3.332031 40.023438 -6.398438 40.023438 -13.324219 C 40.023438 -17.183594 37.539062 -23.210938 30.929688 -23.210938 C 25.960938 -23.210938 22.101562 -19.507812 22.101562 -15.386719 C 22.101562 -10.46875 26.964844 -9.304688 26.964844 -11.578125 C 26.964844 -16.550781 28.285156 -20.195312 31.671875 -20.195312 C 33.839844 -20.195312 36.003906 -18.558594 36.003906 -14.488281 C 36.003906 -8.566406 30.507812 -3.808594 24.53125 -3.808594 C 20.195312 -3.808594 14.910156 -6.503906 14.910156 -15.386719 C 14.910156 -19.085938 16.019531 -23.949219 17.921875 -28.65625 C 19.457031 -28.445312 20.988281 -28.339844 22.363281 -28.339844 C 35.476562 -28.339844 42.933594 -35.265625 42.933594 -40.394531 C 42.933594 -44.730469 39.179688 -47.585938 34.15625 -47.585938 C 26.117188 -47.585938 18.503906 -41.34375 13.535156 -33.414062 C 7.929688 -35.6875 3.59375 -39.917969 3.59375 -44.519531 C 3.59375 -45.207031 3.332031 -45.523438 2.960938 -45.523438 C 1.957031 -45.523438 0 -43.144531 0 -39.601562 C 0 -35.160156 5.394531 -31.777344 11.632812 -29.976562 C 9.199219 -25.113281 7.773438 -19.878906 7.773438 -15.175781 C 7.773438 -3.171875 15.542969 3.332031 24.320312 3.332031 Z M 19.402344 -31.882812 C 22.894531 -38.703125 28.179688 -44.414062 34.3125 -44.414062 C 37.644531 -44.414062 39.070312 -42.824219 39.070312 -40.660156 C 39.070312 -36.058594 32.09375 -31.671875 22.257812 -31.671875 C 21.308594 -31.671875 20.355469 -31.722656 19.402344 -31.882812 Z M 19.402344 -31.882812 "/></g></g></g><g fill="#6f4323" fill-opacity="1"><g transform="translate(92.893132, 215.466045)"><g><path d="M 8.195312 0 C 13.535156 0 16.496094 -5.65625 17.394531 -10.363281 C 21.730469 -10.574219 24.902344 -14.0625 25.429688 -16.917969 C 25.960938 -19.722656 24.164062 -21.148438 22.839844 -18.242188 C 21.308594 -14.804688 18.929688 -14.011719 17.710938 -14.011719 C 17.710938 -17.816406 16.550781 -20.9375 13.640625 -20.9375 C 12.054688 -20.9375 10.734375 -19.402344 10.734375 -16.917969 C 10.734375 -14.804688 11.683594 -12.6875 13.589844 -11.421875 C 12.953125 -8.777344 11.261719 -6.292969 9.359375 -6.292969 C 7.824219 -6.292969 6.660156 -7.929688 6.660156 -11.472656 C 6.660156 -15.015625 8.300781 -19.507812 13.007812 -21.996094 C 14.804688 -22.945312 13.800781 -24.796875 11.949219 -24.796875 C 5.394531 -24.796875 -0.527344 -17.605469 -0.527344 -9.515625 C -0.527344 -3.808594 3.382812 0 8.195312 0 Z M 8.195312 0 "/></g></g></g><g fill="#6f4323" fill-opacity="1"><g transform="translate(113.668133, 215.466045)"><g><path d="M 7.984375 0 C 10.734375 -0.0546875 12.953125 -1.691406 14.855469 -5.074219 C 15.808594 -1.957031 17.765625 0.0546875 20.777344 0 C 25.535156 -0.0546875 30.402344 -7.878906 33.414062 -16.917969 C 34.367188 -19.773438 31.988281 -20.9375 30.824219 -18.242188 C 27.386719 -10.257812 25.378906 -6.292969 23.15625 -6.292969 C 22.046875 -6.292969 21.148438 -7.453125 21.148438 -10.628906 C 21.148438 -14.117188 21.78125 -18.398438 23.15625 -21.625 C 24.375 -24.425781 17.289062 -24.269531 15.863281 -19.933594 C 13.851562 -13.269531 13.21875 -6.292969 9.726562 -6.292969 C 8.777344 -6.292969 7.929688 -7.085938 7.929688 -10.679688 C 7.984375 -13.957031 8.617188 -18.558594 9.941406 -21.625 C 11.15625 -24.425781 4.492188 -24.109375 2.644531 -19.933594 C 1.109375 -16.496094 0.792969 -12.796875 0.847656 -9.621094 C 0.953125 -4.019531 3.382812 0.0546875 7.984375 0 Z M 7.984375 0 "/></g></g></g><g fill="#6f4323" fill-opacity="1"><g transform="translate(142.531111, 215.466045)"><g><path d="M 3.964844 14.960938 C 8.882812 14.960938 17.605469 9.515625 17.605469 -0.847656 C 17.605469 -1.375 17.554688 -1.902344 17.394531 -2.433594 C 21.308594 -5.761719 25.113281 -10.308594 27.492188 -16.917969 C 28.339844 -19.246094 26.4375 -21.359375 24.957031 -18.1875 C 22.207031 -12.425781 19.035156 -8.40625 15.753906 -5.5 C 13.851562 -7.613281 10.574219 -8.722656 6.875 -7.453125 C 10.046875 -12 16.179688 -18.082031 19.457031 -21.464844 C 20.988281 -23.050781 20.9375 -24.796875 19.402344 -24.796875 C 18.1875 -24.796875 14.0625 -22.945312 11.207031 -22.945312 C 5.394531 -22.945312 3.226562 -24.636719 2.167969 -24.636719 C 1.535156 -24.636719 1.003906 -24.214844 1.003906 -23 C 1.003906 -19.933594 4.019531 -17.34375 7.191406 -17.34375 C 9.199219 -17.34375 11.527344 -18.027344 13.429688 -19.296875 C 9.359375 -15.226562 5.023438 -11.738281 2.167969 -6.875 C 1.109375 -5.074219 2.007812 -3.277344 3.4375 -3.699219 C 6.875 -4.757812 9.570312 -4.070312 10.414062 -1.480469 C 3.648438 2.800781 -2.0625 3.964844 -2.0625 9.464844 C -2.0625 12 -0.527344 14.960938 3.964844 14.960938 Z M 2.75 7.453125 C 2.75 6.082031 6.132812 4.8125 10.46875 2.328125 C 9.621094 5.179688 6.925781 8.195312 3.699219 8.195312 C 3.066406 8.195312 2.75 7.929688 2.75 7.453125 Z M 2.75 7.453125 "/></g></g></g><g fill="#6f4323" fill-opacity="1"><g transform="translate(165.473476, 215.466045)"><g><path d="M 8.355469 14.960938 C 15.863281 14.960938 18.242188 7.878906 19.722656 -1.109375 C 24.003906 -4.441406 28.390625 -9.359375 31.300781 -16.917969 C 32.199219 -19.246094 30.191406 -21.308594 28.761719 -18.1875 C 26.332031 -12.847656 23.421875 -8.988281 20.460938 -6.027344 C 21.203125 -11.261719 21.835938 -16.761719 23.15625 -21.625 C 23.898438 -24.636719 17.289062 -24.269531 15.863281 -19.933594 C 13.640625 -12.902344 12.214844 -6.292969 9.726562 -6.292969 C 8.777344 -6.292969 7.929688 -7.085938 7.929688 -10.679688 C 7.984375 -13.957031 8.617188 -18.558594 9.941406 -21.625 C 11.15625 -24.425781 4.492188 -24.109375 2.644531 -19.933594 C 1.109375 -16.496094 0.792969 -12.796875 0.847656 -9.621094 C 0.953125 -4.019531 3.382812 0.0546875 7.984375 0 C 10.046875 0 12.265625 -1.425781 13.800781 -3.332031 C 13.640625 -2.328125 13.480469 -1.375 13.324219 -0.421875 C 7.242188 3.382812 2.328125 4.917969 2.328125 9.464844 C 2.328125 12 3.859375 14.960938 8.355469 14.960938 Z M 7.136719 7.453125 C 7.136719 6.34375 9.199219 5.394531 12.214844 3.753906 C 11.207031 6.449219 9.886719 8.195312 8.089844 8.195312 C 7.347656 8.195312 7.136719 7.929688 7.136719 7.453125 Z M 7.136719 7.453125 "/></g></g></g><g fill="#6f4323" fill-opacity="1"><g transform="translate(192.221947, 215.466045)"><g><path d="M 9.253906 0 C 16.550781 0 21.675781 -8.988281 24.214844 -16.917969 C 25.007812 -19.402344 22.734375 -21.203125 21.625 -18.1875 C 19.617188 -12.6875 15.492188 -6.292969 11.207031 -6.292969 C 8.089844 -6.292969 7.296875 -9.359375 7.296875 -12.476562 C 7.296875 -15.808594 9.199219 -21.464844 12.847656 -21.464844 C 13.851562 -21.464844 14.488281 -20.089844 14.488281 -18.824219 C 14.488281 -15.863281 17.34375 -17.660156 17.34375 -20.195312 C 17.34375 -22.628906 15.542969 -24.851562 12 -24.851562 C 5.179688 -24.851562 -0.0546875 -17.449219 0 -11.15625 C -0.0546875 -3.699219 4.8125 0 9.253906 0 Z M 9.253906 0 "/></g></g></g><g fill="#6f4323" fill-opacity="1"><g transform="translate(211.833974, 215.466045)"><g><path d="M 7.984375 0 C 10.734375 -0.0546875 12.953125 -1.691406 14.855469 -5.074219 C 15.808594 -1.957031 17.765625 0.0546875 20.777344 0 C 25.535156 -0.0546875 30.402344 -7.878906 33.414062 -16.917969 C 34.367188 -19.773438 31.988281 -20.9375 30.824219 -18.242188 C 27.386719 -10.257812 25.378906 -6.292969 23.15625 -6.292969 C 22.046875 -6.292969 21.148438 -7.453125 21.148438 -10.628906 C 21.148438 -14.117188 21.78125 -18.398438 23.15625 -21.625 C 24.375 -24.425781 17.289062 -24.269531 15.863281 -19.933594 C 13.851562 -13.269531 13.21875 -6.292969 9.726562 -6.292969 C 8.777344 -6.292969 7.929688 -7.085938 7.929688 -10.679688 C 7.984375 -13.957031 8.617188 -18.558594 9.941406 -21.625 C 11.15625 -24.425781 4.492188 -24.109375 2.644531 -19.933594 C 1.109375 -16.496094 0.792969 -12.796875 0.847656 -9.621094 C 0.953125 -4.019531 3.382812 0.0546875 7.984375 0 Z M 7.984375 0 "/></g></g></g><g fill="#6f4323" fill-opacity="1"><g transform="translate(240.696952, 215.466045)"><g><path d="M 5.023438 9.515625 C 5.339844 5.605469 5.761719 0.527344 6.875 -4.386719 C 8.035156 -1.957031 9.726562 0 13.589844 0 C 23.898438 0 29.660156 -9.042969 31.828125 -16.917969 C 32.621094 -19.828125 30.242188 -20.988281 29.238281 -18.242188 C 27.703125 -13.957031 25.324219 -8.617188 21.148438 -5.605469 C 22.734375 -8.40625 23.738281 -11.789062 23.738281 -15.070312 C 23.738281 -21.148438 20.882812 -24.851562 16.125 -24.851562 C 13.695312 -24.851562 11.207031 -23.476562 9.78125 -21.570312 C 9.886719 -22.207031 10.097656 -23.15625 10.097656 -23.738281 C 10.097656 -24.53125 9.304688 -24.851562 8.300781 -24.851562 C 5.5 -24.851562 3.015625 -22.257812 1.902344 -18.082031 C 0.898438 -14.488281 -0.738281 -3.332031 -0.738281 3.121094 C -0.738281 11.050781 4.8125 11.894531 5.023438 9.515625 Z M 9.042969 -9.992188 C 9.042969 -15.597656 12.265625 -20.882812 14.644531 -20.882812 C 15.703125 -20.882812 16.550781 -19.296875 16.550781 -17.234375 C 16.550781 -11.472656 14.0625 -6.238281 11.578125 -6.238281 C 10.152344 -6.238281 9.042969 -7.773438 9.042969 -9.992188 Z M 9.042969 -9.992188 "/></g></g></g><g fill="#6f4323" fill-opacity="1"><g transform="translate(37.500002, 263.55473)"><g><path d="M 6.21875 0.21875 C 5.425781 0.21875 4.675781 0.0507812 3.96875 -0.28125 C 3.269531 -0.613281 2.675781 -1.066406 2.1875 -1.640625 C 1.707031 -2.203125 1.332031 -2.863281 1.0625 -3.625 C 0.789062 -4.382812 0.65625 -5.175781 0.65625 -6 C 0.65625 -6.851562 0.789062 -7.648438 1.0625 -8.390625 C 1.34375 -9.128906 1.734375 -9.769531 2.234375 -10.3125 C 2.734375 -10.84375 3.34375 -11.253906 4.0625 -11.546875 C 4.78125 -11.847656 5.554688 -12 6.390625 -12 C 7.109375 -12 7.796875 -11.847656 8.453125 -11.546875 C 9.109375 -11.242188 9.644531 -10.816406 10.0625 -10.265625 C 10.488281 -9.703125 10.703125 -9.078125 10.703125 -8.390625 C 10.703125 -8.148438 10.640625 -7.921875 10.515625 -7.703125 C 10.390625 -7.484375 10.207031 -7.304688 9.96875 -7.171875 C 9.738281 -7.035156 9.472656 -6.96875 9.171875 -6.96875 C 8.773438 -6.96875 8.453125 -7.082031 8.203125 -7.3125 C 7.960938 -7.550781 7.84375 -7.867188 7.84375 -8.265625 C 7.84375 -8.515625 7.910156 -8.734375 8.046875 -8.921875 C 8.191406 -9.117188 8.367188 -9.265625 8.578125 -9.359375 C 8.796875 -9.460938 9.015625 -9.515625 9.234375 -9.515625 C 8.972656 -9.921875 8.585938 -10.253906 8.078125 -10.515625 C 7.566406 -10.773438 7 -10.90625 6.375 -10.90625 C 5.664062 -10.90625 5.035156 -10.703125 4.484375 -10.296875 C 3.929688 -9.890625 3.5 -9.3125 3.1875 -8.5625 C 2.875 -7.820312 2.71875 -6.957031 2.71875 -5.96875 C 2.71875 -5.394531 2.804688 -4.832031 2.984375 -4.28125 C 3.171875 -3.726562 3.429688 -3.222656 3.765625 -2.765625 C 4.097656 -2.296875 4.519531 -1.921875 5.03125 -1.640625 C 5.550781 -1.367188 6.109375 -1.234375 6.703125 -1.234375 C 7.148438 -1.234375 7.578125 -1.316406 7.984375 -1.484375 C 8.390625 -1.660156 8.734375 -1.890625 9.015625 -2.171875 C 9.296875 -2.453125 9.53125 -2.753906 9.71875 -3.078125 C 9.90625 -3.398438 10.039062 -3.734375 10.125 -4.078125 L 11.171875 -3.578125 C 10.890625 -2.359375 10.328125 -1.421875 9.484375 -0.765625 C 8.640625 -0.109375 7.550781 0.21875 6.21875 0.21875 Z M 6.21875 0.21875 "/></g></g></g><g fill="#6f4323" fill-opacity="1"><g transform="translate(48.801935, 263.55473)"><g><path d="M 4.671875 0.21875 C 3.859375 0.21875 3.140625 0.03125 2.515625 -0.34375 C 1.898438 -0.726562 1.421875 -1.253906 1.078125 -1.921875 C 0.742188 -2.585938 0.578125 -3.347656 0.578125 -4.203125 C 0.578125 -5.046875 0.738281 -5.796875 1.0625 -6.453125 C 1.382812 -7.117188 1.851562 -7.644531 2.46875 -8.03125 C 3.09375 -8.414062 3.820312 -8.609375 4.65625 -8.609375 C 5.269531 -8.609375 5.835938 -8.492188 6.359375 -8.265625 C 6.878906 -8.046875 7.3125 -7.738281 7.65625 -7.34375 C 8 -6.945312 8.257812 -6.476562 8.4375 -5.9375 C 8.625 -5.394531 8.71875 -4.816406 8.71875 -4.203125 C 8.71875 -3.359375 8.554688 -2.609375 8.234375 -1.953125 C 7.921875 -1.296875 7.457031 -0.773438 6.84375 -0.390625 C 6.226562 0.015625 5.503906 0.21875 4.671875 0.21875 Z M 4.671875 -0.78125 C 5.128906 -0.78125 5.53125 -0.914062 5.875 -1.1875 C 6.21875 -1.46875 6.476562 -1.859375 6.65625 -2.359375 C 6.84375 -2.859375 6.9375 -3.4375 6.9375 -4.09375 C 6.9375 -4.820312 6.859375 -5.441406 6.703125 -5.953125 C 6.546875 -6.472656 6.296875 -6.890625 5.953125 -7.203125 C 5.609375 -7.523438 5.175781 -7.6875 4.65625 -7.6875 C 4.15625 -7.6875 3.726562 -7.53125 3.375 -7.21875 C 3.019531 -6.90625 2.765625 -6.476562 2.609375 -5.9375 C 2.453125 -5.414062 2.375 -4.800781 2.375 -4.09375 C 2.375 -3.4375 2.460938 -2.859375 2.640625 -2.359375 C 2.828125 -1.859375 3.09375 -1.46875 3.4375 -1.1875 C 3.789062 -0.914062 4.203125 -0.78125 4.671875 -0.78125 Z M 4.671875 -0.78125 "/></g></g></g><g fill="#6f4323" fill-opacity="1"><g transform="translate(58.088734, 263.55473)"><g><path d="M 0.40625 -0.875 L 1.921875 -0.875 L 1.921875 -7.515625 L 0.40625 -7.515625 L 0.40625 -8.390625 L 1.921875 -8.390625 C 1.921875 -9.316406 2.019531 -10.070312 2.21875 -10.65625 C 2.414062 -11.238281 2.726562 -11.671875 3.15625 -11.953125 C 3.59375 -12.234375 4.164062 -12.375 4.875 -12.375 C 5.414062 -12.375 5.890625 -12.296875 6.296875 -12.140625 C 6.703125 -11.984375 7.007812 -11.773438 7.21875 -11.515625 C 7.4375 -11.265625 7.546875 -10.988281 7.546875 -10.6875 C 7.546875 -10.425781 7.492188 -10.191406 7.390625 -9.984375 C 7.285156 -9.773438 7.144531 -9.613281 6.96875 -9.5 C 6.789062 -9.394531 6.59375 -9.34375 6.375 -9.34375 C 6.1875 -9.34375 6.007812 -9.390625 5.84375 -9.484375 C 5.6875 -9.578125 5.554688 -9.703125 5.453125 -9.859375 C 5.359375 -10.023438 5.3125 -10.207031 5.3125 -10.40625 C 5.3125 -10.601562 5.394531 -10.796875 5.5625 -10.984375 C 5.726562 -11.171875 5.9375 -11.296875 6.1875 -11.359375 C 6.070312 -11.460938 5.910156 -11.546875 5.703125 -11.609375 C 5.503906 -11.679688 5.304688 -11.71875 5.109375 -11.71875 C 4.609375 -11.71875 4.222656 -11.550781 3.953125 -11.21875 C 3.691406 -10.882812 3.5625 -10.382812 3.5625 -9.71875 L 3.5625 -8.390625 L 6.109375 -8.390625 L 6.046875 -7.515625 L 3.609375 -7.515625 L 3.609375 -0.875 L 5.5625 -0.875 L 5.5625 0 L 0.40625 0 Z M 0.40625 -0.875 "/></g></g></g><g fill="#6f4323" fill-opacity="1"><g transform="translate(64.22786, 263.55473)"><g><path d="M 0.40625 -0.875 L 1.921875 -0.875 L 1.921875 -7.515625 L 0.40625 -7.515625 L 0.40625 -8.390625 L 1.921875 -8.390625 C 1.921875 -9.316406 2.019531 -10.070312 2.21875 -10.65625 C 2.414062 -11.238281 2.726562 -11.671875 3.15625 -11.953125 C 3.59375 -12.234375 4.164062 -12.375 4.875 -12.375 C 5.414062 -12.375 5.890625 -12.296875 6.296875 -12.140625 C 6.703125 -11.984375 7.007812 -11.773438 7.21875 -11.515625 C 7.4375 -11.265625 7.546875 -10.988281 7.546875 -10.6875 C 7.546875 -10.425781 7.492188 -10.191406 7.390625 -9.984375 C 7.285156 -9.773438 7.144531 -9.613281 6.96875 -9.5 C 6.789062 -9.394531 6.59375 -9.34375 6.375 -9.34375 C 6.1875 -9.34375 6.007812 -9.390625 5.84375 -9.484375 C 5.6875 -9.578125 5.554688 -9.703125 5.453125 -9.859375 C 5.359375 -10.023438 5.3125 -10.207031 5.3125 -10.40625 C 5.3125 -10.601562 5.394531 -10.796875 5.5625 -10.984375 C 5.726562 -11.171875 5.9375 -11.296875 6.1875 -11.359375 C 6.070312 -11.460938 5.910156 -11.546875 5.703125 -11.609375 C 5.503906 -11.679688 5.304688 -11.71875 5.109375 -11.71875 C 4.609375 -11.71875 4.222656 -11.550781 3.953125 -11.21875 C 3.691406 -10.882812 3.5625 -10.382812 3.5625 -9.71875 L 3.5625 -8.390625 L 6.109375 -8.390625 L 6.046875 -7.515625 L 3.609375 -7.515625 L 3.609375 -0.875 L 5.5625 -0.875 L 5.5625 0 L 0.40625 0 Z M 0.40625 -0.875 "/></g></g></g><g fill="#6f4323" fill-opacity="1"><g transform="translate(70.366985, 263.55473)"><g><path d="M 4.65625 0.21875 C 4.03125 0.21875 3.453125 0.0976562 2.921875 -0.140625 C 2.398438 -0.378906 1.96875 -0.707031 1.625 -1.125 C 1.289062 -1.53125 1.03125 -1.988281 0.84375 -2.5 C 0.664062 -3.007812 0.578125 -3.539062 0.578125 -4.09375 C 0.578125 -4.5625 0.632812 -5.015625 0.75 -5.453125 C 0.863281 -5.898438 1.03125 -6.3125 1.25 -6.6875 C 1.726562 -7.507812 2.367188 -8.070312 3.171875 -8.375 C 3.585938 -8.53125 4.050781 -8.609375 4.5625 -8.609375 C 5.09375 -8.609375 5.585938 -8.515625 6.046875 -8.328125 C 6.503906 -8.140625 6.90625 -7.867188 7.25 -7.515625 C 7.601562 -7.148438 7.878906 -6.691406 8.078125 -6.140625 C 8.273438 -5.585938 8.378906 -4.976562 8.390625 -4.3125 L 2.375 -4.3125 L 2.375 -4.25 C 2.375 -3.34375 2.566406 -2.578125 2.953125 -1.953125 C 3.140625 -1.640625 3.394531 -1.394531 3.71875 -1.21875 C 4.039062 -1.050781 4.410156 -0.96875 4.828125 -0.96875 C 5.191406 -0.96875 5.539062 -1.039062 5.875 -1.1875 C 6.21875 -1.34375 6.515625 -1.566406 6.765625 -1.859375 C 7.023438 -2.160156 7.207031 -2.507812 7.3125 -2.90625 L 8.234375 -2.609375 C 8.097656 -2.035156 7.863281 -1.535156 7.53125 -1.109375 C 7.207031 -0.691406 6.800781 -0.363281 6.3125 -0.125 C 5.820312 0.101562 5.269531 0.21875 4.65625 0.21875 Z M 6.671875 -5.15625 C 6.660156 -5.644531 6.5625 -6.082031 6.375 -6.46875 C 6.195312 -6.851562 5.953125 -7.148438 5.640625 -7.359375 C 5.328125 -7.578125 4.984375 -7.6875 4.609375 -7.6875 C 4.234375 -7.6875 3.882812 -7.578125 3.5625 -7.359375 C 3.25 -7.148438 2.988281 -6.851562 2.78125 -6.46875 C 2.582031 -6.082031 2.460938 -5.644531 2.421875 -5.15625 Z M 6.671875 -5.15625 "/></g></g></g><g fill="#6f4323" fill-opacity="1"><g transform="translate(79.349166, 263.55473)"><g><path d="M 4.65625 0.21875 C 4.03125 0.21875 3.453125 0.0976562 2.921875 -0.140625 C 2.398438 -0.378906 1.96875 -0.707031 1.625 -1.125 C 1.289062 -1.53125 1.03125 -1.988281 0.84375 -2.5 C 0.664062 -3.007812 0.578125 -3.539062 0.578125 -4.09375 C 0.578125 -4.5625 0.632812 -5.015625 0.75 -5.453125 C 0.863281 -5.898438 1.03125 -6.3125 1.25 -6.6875 C 1.726562 -7.507812 2.367188 -8.070312 3.171875 -8.375 C 3.585938 -8.53125 4.050781 -8.609375 4.5625 -8.609375 C 5.09375 -8.609375 5.585938 -8.515625 6.046875 -8.328125 C 6.503906 -8.140625 6.90625 -7.867188 7.25 -7.515625 C 7.601562 -7.148438 7.878906 -6.691406 8.078125 -6.140625 C 8.273438 -5.585938 8.378906 -4.976562 8.390625 -4.3125 L 2.375 -4.3125 L 2.375 -4.25 C 2.375 -3.34375 2.566406 -2.578125 2.953125 -1.953125 C 3.140625 -1.640625 3.394531 -1.394531 3.71875 -1.21875 C 4.039062 -1.050781 4.410156 -0.96875 4.828125 -0.96875 C 5.191406 -0.96875 5.539062 -1.039062 5.875 -1.1875 C 6.21875 -1.34375 6.515625 -1.566406 6.765625 -1.859375 C 7.023438 -2.160156 7.207031 -2.507812 7.3125 -2.90625 L 8.234375 -2.609375 C 8.097656 -2.035156 7.863281 -1.535156 7.53125 -1.109375 C 7.207031 -0.691406 6.800781 -0.363281 6.3125 -0.125 C 5.820312 0.101562 5.269531 0.21875 4.65625 0.21875 Z M 6.671875 -5.15625 C 6.660156 -5.644531 6.5625 -6.082031 6.375 -6.46875 C 6.195312 -6.851562 5.953125 -7.148438 5.640625 -7.359375 C 5.328125 -7.578125 4.984375 -7.6875 4.609375 -7.6875 C 4.234375 -7.6875 3.882812 -7.578125 3.5625 -7.359375 C 3.25 -7.148438 2.988281 -6.851562 2.78125 -6.46875 C 2.582031 -6.082031 2.460938 -5.644531 2.421875 -5.15625 Z M 6.671875 -5.15625 "/></g></g></g><g fill="#6f4323" fill-opacity="1"><g transform="translate(88.331347, 263.55473)"><g/></g></g><g fill="#6f4323" fill-opacity="1"><g transform="translate(92.080431, 263.55473)"><g><path d="M 5.28125 0.21875 C 4.664062 0.21875 4.078125 0.15625 3.515625 0.03125 C 2.960938 -0.0820312 2.453125 -0.25 1.984375 -0.46875 C 1.515625 -0.695312 1.144531 -1 0.875 -1.375 C 0.601562 -1.75 0.46875 -2.164062 0.46875 -2.625 C 0.46875 -2.90625 0.53125 -3.160156 0.65625 -3.390625 C 0.789062 -3.617188 0.960938 -3.796875 1.171875 -3.921875 C 1.390625 -4.046875 1.625 -4.109375 1.875 -4.109375 C 2.101562 -4.109375 2.3125 -4.046875 2.5 -3.921875 C 2.6875 -3.804688 2.835938 -3.644531 2.953125 -3.4375 C 3.066406 -3.238281 3.125 -3.03125 3.125 -2.8125 C 3.125 -2.476562 3.023438 -2.21875 2.828125 -2.03125 C 2.640625 -1.84375 2.367188 -1.726562 2.015625 -1.6875 C 2.398438 -1.414062 2.820312 -1.210938 3.28125 -1.078125 C 3.75 -0.953125 4.332031 -0.890625 5.03125 -0.890625 C 6.195312 -0.890625 7.039062 -1.171875 7.5625 -1.734375 C 7.84375 -2.035156 7.984375 -2.398438 7.984375 -2.828125 C 7.984375 -3.316406 7.820312 -3.710938 7.5 -4.015625 C 7.351562 -4.148438 7.144531 -4.28125 6.875 -4.40625 C 6.601562 -4.539062 6.304688 -4.65625 5.984375 -4.75 C 5.609375 -4.863281 5.210938 -4.972656 4.796875 -5.078125 C 3.753906 -5.335938 2.914062 -5.640625 2.28125 -5.984375 C 1.65625 -6.328125 1.222656 -6.71875 0.984375 -7.15625 C 0.734375 -7.582031 0.609375 -8.09375 0.609375 -8.6875 C 0.609375 -9.320312 0.796875 -9.890625 1.171875 -10.390625 C 1.554688 -10.898438 2.085938 -11.296875 2.765625 -11.578125 C 3.453125 -11.859375 4.234375 -12 5.109375 -12 C 5.859375 -12 6.609375 -11.878906 7.359375 -11.640625 C 7.785156 -11.503906 8.148438 -11.335938 8.453125 -11.140625 C 8.765625 -10.953125 9.019531 -10.710938 9.21875 -10.421875 C 9.414062 -10.117188 9.515625 -9.785156 9.515625 -9.421875 C 9.515625 -8.953125 9.394531 -8.570312 9.15625 -8.28125 C 8.914062 -8 8.59375 -7.859375 8.1875 -7.859375 C 7.945312 -7.859375 7.726562 -7.90625 7.53125 -8 C 7.332031 -8.09375 7.171875 -8.222656 7.046875 -8.390625 C 6.929688 -8.554688 6.875 -8.75 6.875 -8.96875 C 6.875 -9.363281 6.972656 -9.664062 7.171875 -9.875 C 7.378906 -10.082031 7.632812 -10.1875 7.9375 -10.1875 C 7.320312 -10.664062 6.441406 -10.90625 5.296875 -10.90625 C 4.796875 -10.90625 4.332031 -10.832031 3.90625 -10.6875 C 3.488281 -10.539062 3.148438 -10.320312 2.890625 -10.03125 C 2.617188 -9.738281 2.484375 -9.398438 2.484375 -9.015625 C 2.484375 -8.816406 2.5 -8.648438 2.53125 -8.515625 C 2.5625 -8.378906 2.632812 -8.238281 2.75 -8.09375 C 2.851562 -7.9375 3.003906 -7.789062 3.203125 -7.65625 C 3.398438 -7.53125 3.664062 -7.40625 4 -7.28125 C 4.332031 -7.15625 4.738281 -7.039062 5.21875 -6.9375 C 6.71875 -6.59375 7.835938 -6.1875 8.578125 -5.71875 C 8.921875 -5.5 9.195312 -5.25 9.40625 -4.96875 C 9.625 -4.6875 9.78125 -4.394531 9.875 -4.09375 C 9.945312 -3.8125 9.984375 -3.484375 9.984375 -3.109375 C 9.984375 -2.421875 9.800781 -1.828125 9.4375 -1.328125 C 9.070312 -0.828125 8.535156 -0.441406 7.828125 -0.171875 C 7.128906 0.0859375 6.28125 0.21875 5.28125 0.21875 Z M 5.28125 0.21875 "/></g></g></g><g fill="#6f4323" fill-opacity="1"><g transform="translate(102.523199, 263.55473)"><g><path d="M 0.359375 -0.875 L 1.796875 -0.875 L 1.796875 -10.796875 L 0.265625 -10.796875 L 0.265625 -11.765625 L 3.46875 -11.765625 L 3.46875 -6.90625 C 3.664062 -7.289062 3.921875 -7.617188 4.234375 -7.890625 C 4.554688 -8.160156 4.890625 -8.351562 5.234375 -8.46875 C 5.546875 -8.5625 5.875 -8.609375 6.21875 -8.609375 C 6.46875 -8.609375 6.6875 -8.585938 6.875 -8.546875 C 7.0625 -8.515625 7.273438 -8.445312 7.515625 -8.34375 C 7.773438 -8.207031 7.992188 -8.035156 8.171875 -7.828125 C 8.347656 -7.628906 8.492188 -7.347656 8.609375 -6.984375 C 8.734375 -6.609375 8.796875 -6.164062 8.796875 -5.65625 L 8.796875 -0.875 L 10.484375 -0.875 L 10.484375 0 L 5.609375 0 L 5.609375 -0.875 L 7.125 -0.875 L 7.125 -5.71875 C 7.125 -6.300781 7.007812 -6.742188 6.78125 -7.046875 C 6.5625 -7.359375 6.257812 -7.515625 5.875 -7.515625 C 5.613281 -7.515625 5.34375 -7.441406 5.0625 -7.296875 C 4.78125 -7.148438 4.519531 -6.953125 4.28125 -6.703125 C 4.03125 -6.441406 3.832031 -6.128906 3.6875 -5.765625 C 3.539062 -5.410156 3.46875 -5.046875 3.46875 -4.671875 L 3.46875 -0.875 L 5 -0.875 L 5 0 L 0.359375 0 Z M 0.359375 -0.875 "/></g></g></g><g fill="#6f4323" fill-opacity="1"><g transform="translate(113.106557, 263.55473)"><g><path d="M 4.671875 0.21875 C 3.859375 0.21875 3.140625 0.03125 2.515625 -0.34375 C 1.898438 -0.726562 1.421875 -1.253906 1.078125 -1.921875 C 0.742188 -2.585938 0.578125 -3.347656 0.578125 -4.203125 C 0.578125 -5.046875 0.738281 -5.796875 1.0625 -6.453125 C 1.382812 -7.117188 1.851562 -7.644531 2.46875 -8.03125 C 3.09375 -8.414062 3.820312 -8.609375 4.65625 -8.609375 C 5.269531 -8.609375 5.835938 -8.492188 6.359375 -8.265625 C 6.878906 -8.046875 7.3125 -7.738281 7.65625 -7.34375 C 8 -6.945312 8.257812 -6.476562 8.4375 -5.9375 C 8.625 -5.394531 8.71875 -4.816406 8.71875 -4.203125 C 8.71875 -3.359375 8.554688 -2.609375 8.234375 -1.953125 C 7.921875 -1.296875 7.457031 -0.773438 6.84375 -0.390625 C 6.226562 0.015625 5.503906 0.21875 4.671875 0.21875 Z M 4.671875 -0.78125 C 5.128906 -0.78125 5.53125 -0.914062 5.875 -1.1875 C 6.21875 -1.46875 6.476562 -1.859375 6.65625 -2.359375 C 6.84375 -2.859375 6.9375 -3.4375 6.9375 -4.09375 C 6.9375 -4.820312 6.859375 -5.441406 6.703125 -5.953125 C 6.546875 -6.472656 6.296875 -6.890625 5.953125 -7.203125 C 5.609375 -7.523438 5.175781 -7.6875 4.65625 -7.6875 C 4.15625 -7.6875 3.726562 -7.53125 3.375 -7.21875 C 3.019531 -6.90625 2.765625 -6.476562 2.609375 -5.9375 C 2.453125 -5.414062 2.375 -4.800781 2.375 -4.09375 C 2.375 -3.4375 2.460938 -2.859375 2.640625 -2.359375 C 2.828125 -1.859375 3.09375 -1.46875 3.4375 -1.1875 C 3.789062 -0.914062 4.203125 -0.78125 4.671875 -0.78125 Z M 4.671875 -0.78125 "/></g></g></g><g fill="#6f4323" fill-opacity="1"><g transform="translate(122.393357, 263.55473)"><g><path d="M -0.421875 2.203125 L 1.421875 2.203125 L 1.421875 -7.515625 L -0.09375 -7.515625 L -0.09375 -8.390625 L 3.0625 -8.609375 L 3.0625 -7.046875 C 3.34375 -7.554688 3.695312 -7.941406 4.125 -8.203125 C 4.5625 -8.472656 5.054688 -8.609375 5.609375 -8.609375 C 6.253906 -8.609375 6.832031 -8.414062 7.34375 -8.03125 C 7.863281 -7.644531 8.265625 -7.113281 8.546875 -6.4375 C 8.828125 -5.757812 8.96875 -5.019531 8.96875 -4.21875 C 8.96875 -3.351562 8.820312 -2.582031 8.53125 -1.90625 C 8.238281 -1.238281 7.820312 -0.71875 7.28125 -0.34375 C 6.75 0.03125 6.125 0.21875 5.40625 0.21875 C 4.945312 0.21875 4.515625 0.109375 4.109375 -0.109375 C 3.703125 -0.335938 3.367188 -0.648438 3.109375 -1.046875 L 3.109375 2.1875 L 4.828125 2.1875 L 4.828125 3.140625 L -0.421875 3.140625 Z M 5.109375 -0.671875 C 5.460938 -0.671875 5.773438 -0.773438 6.046875 -0.984375 C 6.328125 -1.203125 6.546875 -1.492188 6.703125 -1.859375 C 7.015625 -2.578125 7.171875 -3.394531 7.171875 -4.3125 C 7.171875 -4.90625 7.09375 -5.441406 6.9375 -5.921875 C 6.78125 -6.410156 6.546875 -6.816406 6.234375 -7.140625 C 5.910156 -7.460938 5.535156 -7.625 5.109375 -7.625 C 4.691406 -7.625 4.320312 -7.472656 4 -7.171875 C 3.6875 -6.878906 3.441406 -6.46875 3.265625 -5.9375 C 3.085938 -5.414062 3 -4.820312 3 -4.15625 C 3 -3.289062 3.160156 -2.515625 3.484375 -1.828125 C 3.640625 -1.472656 3.859375 -1.191406 4.140625 -0.984375 C 4.429688 -0.773438 4.753906 -0.671875 5.109375 -0.671875 Z M 5.109375 -0.671875 "/></g></g></g><g fill="#6f4323" fill-opacity="1"><g transform="translate(131.922279, 263.55473)"><g/></g></g><g fill="#6f4323" fill-opacity="1"><g transform="translate(135.671363, 263.55473)"><g><path d="M 0.0625 0 L 0.0625 -1.125 L 1.46875 -1.125 L 5.59375 -11.765625 L 7.4375 -11.765625 L 11.625 -1.125 L 12.9375 -1.125 L 12.9375 0 L 7.875 0 L 7.875 -1.125 L 9.625 -1.125 L 8.53125 -3.9375 L 4.015625 -3.9375 L 3 -1.125 L 4.96875 -1.125 L 4.96875 0 Z M 4.390625 -4.9375 L 8.140625 -4.9375 L 6.21875 -10.234375 Z M 4.390625 -4.9375 "/></g></g></g><g fill="#6f4323" fill-opacity="1"><g transform="translate(148.652567, 263.55473)"><g><path d="M 0.390625 -0.875 L 1.90625 -0.875 L 1.90625 -7.515625 L 0.390625 -7.515625 L 0.390625 -8.390625 L 3.34375 -8.515625 L 3.546875 -6.8125 C 3.703125 -7.1875 3.925781 -7.507812 4.21875 -7.78125 C 4.519531 -8.050781 4.851562 -8.253906 5.21875 -8.390625 C 5.582031 -8.535156 5.953125 -8.609375 6.328125 -8.609375 C 6.503906 -8.609375 6.660156 -8.597656 6.796875 -8.578125 C 6.929688 -8.566406 7.082031 -8.535156 7.25 -8.484375 C 7.4375 -8.429688 7.601562 -8.359375 7.75 -8.265625 C 7.894531 -8.179688 8.039062 -8.0625 8.1875 -7.90625 C 8.34375 -7.75 8.46875 -7.566406 8.5625 -7.359375 C 8.664062 -7.148438 8.753906 -6.894531 8.828125 -6.59375 C 8.890625 -6.289062 8.921875 -5.953125 8.921875 -5.578125 L 8.921875 -0.875 L 10.515625 -0.875 L 10.515625 0 L 5.8125 0 L 5.8125 -0.875 L 7.234375 -0.875 L 7.234375 -5.5625 C 7.234375 -6.21875 7.101562 -6.710938 6.84375 -7.046875 C 6.582031 -7.378906 6.21875 -7.546875 5.75 -7.546875 C 5.457031 -7.546875 5.1875 -7.488281 4.9375 -7.375 C 4.6875 -7.269531 4.476562 -7.117188 4.3125 -6.921875 C 4.15625 -6.734375 4.019531 -6.507812 3.90625 -6.25 C 3.789062 -6 3.710938 -5.734375 3.671875 -5.453125 C 3.617188 -5.191406 3.59375 -4.898438 3.59375 -4.578125 L 3.59375 -0.875 L 5.015625 -0.875 L 5.015625 0 L 0.390625 0 Z M 0.390625 -0.875 "/></g></g></g><g fill="#6f4323" fill-opacity="1"><g transform="translate(159.267168, 263.55473)"><g><path d="M 4.0625 0.21875 C 3.382812 0.21875 2.785156 0.0351562 2.265625 -0.328125 C 1.742188 -0.703125 1.335938 -1.222656 1.046875 -1.890625 C 0.765625 -2.554688 0.625 -3.328125 0.625 -4.203125 C 0.625 -5.078125 0.769531 -5.847656 1.0625 -6.515625 C 1.351562 -7.179688 1.765625 -7.695312 2.296875 -8.0625 C 2.835938 -8.425781 3.46875 -8.609375 4.1875 -8.609375 C 4.625 -8.609375 5.050781 -8.492188 5.46875 -8.265625 C 5.882812 -8.046875 6.222656 -7.742188 6.484375 -7.359375 L 6.484375 -10.796875 L 4.640625 -10.796875 L 4.640625 -11.765625 L 8.15625 -11.765625 L 8.15625 -0.875 L 9.578125 -0.875 L 9.578125 0 L 6.796875 0 L 6.5 -1.328125 C 6.238281 -0.847656 5.882812 -0.46875 5.4375 -0.1875 C 4.988281 0.0820312 4.53125 0.21875 4.0625 0.21875 Z M 4.40625 -0.78125 C 4.820312 -0.78125 5.195312 -0.929688 5.53125 -1.234375 C 5.863281 -1.535156 6.125 -1.953125 6.3125 -2.484375 C 6.5 -3.023438 6.59375 -3.628906 6.59375 -4.296875 C 6.59375 -5.160156 6.425781 -5.929688 6.09375 -6.609375 C 5.925781 -6.953125 5.695312 -7.222656 5.40625 -7.421875 C 5.125 -7.628906 4.8125 -7.734375 4.46875 -7.734375 C 4.113281 -7.734375 3.800781 -7.628906 3.53125 -7.421875 C 3.257812 -7.222656 3.039062 -6.941406 2.875 -6.578125 C 2.570312 -5.890625 2.421875 -5.082031 2.421875 -4.15625 C 2.421875 -2.875 2.710938 -1.921875 3.296875 -1.296875 C 3.597656 -0.953125 3.96875 -0.78125 4.40625 -0.78125 Z M 4.40625 -0.78125 "/></g></g></g><g fill="#6f4323" fill-opacity="1"><g transform="translate(168.921059, 263.55473)"><g/></g></g><g fill="#6f4323" fill-opacity="1"><g transform="translate(172.670144, 263.55473)"><g><path d="M 0.265625 -1.125 L 2.1875 -1.125 L 2.1875 -10.640625 L 0.265625 -10.640625 L 0.265625 -11.765625 L 5.375 -11.765625 C 6.070312 -11.765625 6.765625 -11.695312 7.453125 -11.5625 C 8.160156 -11.414062 8.78125 -11.132812 9.3125 -10.71875 C 9.5625 -10.507812 9.753906 -10.242188 9.890625 -9.921875 C 10.035156 -9.597656 10.109375 -9.242188 10.109375 -8.859375 C 10.109375 -8.203125 9.925781 -7.664062 9.5625 -7.25 C 9.207031 -6.84375 8.671875 -6.535156 7.953125 -6.328125 C 8.859375 -6.097656 9.546875 -5.722656 10.015625 -5.203125 C 10.492188 -4.691406 10.734375 -4.03125 10.734375 -3.21875 C 10.734375 -2.8125 10.671875 -2.4375 10.546875 -2.09375 C 10.429688 -1.757812 10.269531 -1.476562 10.0625 -1.25 C 9.875 -1.039062 9.628906 -0.851562 9.328125 -0.6875 C 9.023438 -0.519531 8.71875 -0.394531 8.40625 -0.3125 C 8.132812 -0.226562 7.804688 -0.160156 7.421875 -0.109375 C 7.046875 -0.0664062 6.703125 -0.0351562 6.390625 -0.015625 C 6.023438 -0.00390625 5.707031 0 5.4375 0 L 0.265625 0 Z M 5.71875 -6.734375 C 6.40625 -6.734375 7.015625 -6.875 7.546875 -7.15625 C 7.816406 -7.289062 8.03125 -7.484375 8.1875 -7.734375 C 8.34375 -7.984375 8.421875 -8.269531 8.421875 -8.59375 C 8.421875 -9.09375 8.3125 -9.5 8.09375 -9.8125 C 7.90625 -10.0625 7.582031 -10.265625 7.125 -10.421875 C 6.800781 -10.515625 6.296875 -10.582031 5.609375 -10.625 C 5.253906 -10.632812 4.929688 -10.640625 4.640625 -10.640625 L 4.015625 -10.640625 L 4.015625 -6.734375 Z M 4.953125 -1.125 C 5.628906 -1.125 6.203125 -1.144531 6.671875 -1.1875 C 6.921875 -1.21875 7.140625 -1.253906 7.328125 -1.296875 C 7.523438 -1.347656 7.71875 -1.410156 7.90625 -1.484375 C 8.070312 -1.554688 8.210938 -1.644531 8.328125 -1.75 C 8.441406 -1.851562 8.550781 -1.984375 8.65625 -2.140625 C 8.820312 -2.398438 8.90625 -2.78125 8.90625 -3.28125 C 8.90625 -3.675781 8.816406 -4.03125 8.640625 -4.34375 C 8.460938 -4.664062 8.21875 -4.925781 7.90625 -5.125 C 7.59375 -5.3125 7.25 -5.453125 6.875 -5.546875 C 6.507812 -5.648438 6.125 -5.703125 5.71875 -5.703125 L 4.015625 -5.703125 L 4.015625 -1.125 Z M 4.953125 -1.125 "/></g></g></g><g fill="#6f4323" fill-opacity="1"><g transform="translate(183.956455, 263.55473)"><g><path d="M 2.78125 0.21875 C 2.351562 0.21875 1.972656 0.140625 1.640625 -0.015625 C 1.316406 -0.171875 1.0625 -0.394531 0.875 -0.6875 C 0.695312 -0.976562 0.609375 -1.320312 0.609375 -1.71875 C 0.609375 -2.019531 0.675781 -2.300781 0.8125 -2.5625 C 0.957031 -2.820312 1.148438 -3.039062 1.390625 -3.21875 C 1.617188 -3.382812 1.878906 -3.546875 2.171875 -3.703125 C 2.460938 -3.859375 2.765625 -3.992188 3.078125 -4.109375 C 3.703125 -4.335938 4.265625 -4.597656 4.765625 -4.890625 C 5.003906 -5.023438 5.191406 -5.191406 5.328125 -5.390625 C 5.460938 -5.585938 5.53125 -5.800781 5.53125 -6.03125 C 5.53125 -6.613281 5.382812 -7.050781 5.09375 -7.34375 C 4.8125 -7.644531 4.398438 -7.796875 3.859375 -7.796875 C 3.484375 -7.796875 3.128906 -7.734375 2.796875 -7.609375 C 2.472656 -7.492188 2.21875 -7.335938 2.03125 -7.140625 C 2.351562 -7.140625 2.613281 -7.050781 2.8125 -6.875 C 3.019531 -6.695312 3.125 -6.484375 3.125 -6.234375 C 3.125 -6.015625 3.070312 -5.820312 2.96875 -5.65625 C 2.875 -5.488281 2.742188 -5.359375 2.578125 -5.265625 C 2.410156 -5.171875 2.226562 -5.125 2.03125 -5.125 C 1.707031 -5.125 1.4375 -5.234375 1.21875 -5.453125 C 1 -5.679688 0.890625 -5.992188 0.890625 -6.390625 C 0.890625 -6.597656 0.957031 -6.828125 1.09375 -7.078125 C 1.238281 -7.328125 1.4375 -7.566406 1.6875 -7.796875 C 1.957031 -8.046875 2.3125 -8.242188 2.75 -8.390625 C 3.195312 -8.535156 3.679688 -8.609375 4.203125 -8.609375 C 4.628906 -8.609375 5.015625 -8.5625 5.359375 -8.46875 C 5.710938 -8.375 6.03125 -8.222656 6.3125 -8.015625 C 6.601562 -7.796875 6.820312 -7.5 6.96875 -7.125 C 7.125 -6.75 7.203125 -6.3125 7.203125 -5.8125 L 7.203125 -2.21875 C 7.203125 -1.988281 7.226562 -1.785156 7.28125 -1.609375 C 7.34375 -1.429688 7.441406 -1.269531 7.578125 -1.125 C 7.722656 -0.976562 7.90625 -0.90625 8.125 -0.90625 C 8.789062 -0.90625 9.125 -1.367188 9.125 -2.296875 L 9.125 -3.453125 L 9.96875 -3.453125 L 9.96875 -2.453125 C 9.96875 -1.929688 9.910156 -1.488281 9.796875 -1.125 C 9.691406 -0.769531 9.535156 -0.5 9.328125 -0.3125 C 9.128906 -0.125 8.90625 0.0078125 8.65625 0.09375 C 8.414062 0.175781 8.128906 0.21875 7.796875 0.21875 C 7.429688 0.21875 7.097656 0.144531 6.796875 0 C 6.503906 -0.144531 6.253906 -0.363281 6.046875 -0.65625 C 5.816406 -0.957031 5.6875 -1.320312 5.65625 -1.75 C 5.507812 -1.375 5.285156 -1.035156 4.984375 -0.734375 C 4.691406 -0.441406 4.351562 -0.207031 3.96875 -0.03125 C 3.582031 0.132812 3.1875 0.21875 2.78125 0.21875 Z M 3.1875 -0.921875 C 3.53125 -0.921875 3.882812 -1.019531 4.25 -1.21875 C 4.625 -1.425781 4.929688 -1.6875 5.171875 -2 C 5.410156 -2.3125 5.53125 -2.613281 5.53125 -2.90625 L 5.53125 -4.5625 C 5.226562 -4.269531 4.867188 -3.992188 4.453125 -3.734375 C 4.035156 -3.472656 3.65625 -3.265625 3.3125 -3.109375 C 3 -2.972656 2.75 -2.789062 2.5625 -2.5625 C 2.375 -2.34375 2.28125 -2.085938 2.28125 -1.796875 C 2.28125 -1.523438 2.359375 -1.3125 2.515625 -1.15625 C 2.671875 -1 2.894531 -0.921875 3.1875 -0.921875 Z M 3.1875 -0.921875 "/></g></g></g><g fill="#6f4323" fill-opacity="1"><g transform="translate(193.852481, 263.55473)"><g><path d="M 8.828125 0.15625 C 8.285156 0.15625 7.8125 0.015625 7.40625 -0.265625 C 7.007812 -0.546875 6.644531 -0.976562 6.3125 -1.5625 L 4.734375 -4.265625 L 3.4375 -3.265625 L 3.4375 -0.875 L 4.765625 -0.875 L 4.765625 0 L 0.1875 0 L 0.1875 -0.875 L 1.765625 -0.875 L 1.765625 -10.796875 L 0.1875 -10.796875 L 0.1875 -11.765625 L 3.4375 -11.765625 L 3.4375 -4.46875 L 6.703125 -7.515625 L 5.234375 -7.515625 L 5.234375 -8.390625 L 9.921875 -8.390625 L 9.921875 -7.515625 L 8.4375 -7.515625 L 5.734375 -4.921875 C 5.878906 -4.710938 6.082031 -4.394531 6.34375 -3.96875 C 6.625 -3.519531 6.859375 -3.15625 7.046875 -2.875 C 7.234375 -2.59375 7.441406 -2.3125 7.671875 -2.03125 C 7.921875 -1.71875 8.171875 -1.476562 8.421875 -1.3125 C 8.679688 -1.15625 8.9375 -1.078125 9.1875 -1.078125 C 9.488281 -1.078125 9.757812 -1.128906 10 -1.234375 L 10.234375 -0.1875 C 9.992188 -0.0390625 9.773438 0.0507812 9.578125 0.09375 C 9.378906 0.132812 9.128906 0.15625 8.828125 0.15625 Z M 8.828125 0.15625 "/></g></g></g><g fill="#6f4323" fill-opacity="1"><g transform="translate(204.006251, 263.55473)"><g><path d="M 4.65625 0.21875 C 4.03125 0.21875 3.453125 0.0976562 2.921875 -0.140625 C 2.398438 -0.378906 1.96875 -0.707031 1.625 -1.125 C 1.289062 -1.53125 1.03125 -1.988281 0.84375 -2.5 C 0.664062 -3.007812 0.578125 -3.539062 0.578125 -4.09375 C 0.578125 -4.5625 0.632812 -5.015625 0.75 -5.453125 C 0.863281 -5.898438 1.03125 -6.3125 1.25 -6.6875 C 1.726562 -7.507812 2.367188 -8.070312 3.171875 -8.375 C 3.585938 -8.53125 4.050781 -8.609375 4.5625 -8.609375 C 5.09375 -8.609375 5.585938 -8.515625 6.046875 -8.328125 C 6.503906 -8.140625 6.90625 -7.867188 7.25 -7.515625 C 7.601562 -7.148438 7.878906 -6.691406 8.078125 -6.140625 C 8.273438 -5.585938 8.378906 -4.976562 8.390625 -4.3125 L 2.375 -4.3125 L 2.375 -4.25 C 2.375 -3.34375 2.566406 -2.578125 2.953125 -1.953125 C 3.140625 -1.640625 3.394531 -1.394531 3.71875 -1.21875 C 4.039062 -1.050781 4.410156 -0.96875 4.828125 -0.96875 C 5.191406 -0.96875 5.539062 -1.039062 5.875 -1.1875 C 6.21875 -1.34375 6.515625 -1.566406 6.765625 -1.859375 C 7.023438 -2.160156 7.207031 -2.507812 7.3125 -2.90625 L 8.234375 -2.609375 C 8.097656 -2.035156 7.863281 -1.535156 7.53125 -1.109375 C 7.207031 -0.691406 6.800781 -0.363281 6.3125 -0.125 C 5.820312 0.101562 5.269531 0.21875 4.65625 0.21875 Z M 6.671875 -5.15625 C 6.660156 -5.644531 6.5625 -6.082031 6.375 -6.46875 C 6.195312 -6.851562 5.953125 -7.148438 5.640625 -7.359375 C 5.328125 -7.578125 4.984375 -7.6875 4.609375 -7.6875 C 4.234375 -7.6875 3.882812 -7.578125 3.5625 -7.359375 C 3.25 -7.148438 2.988281 -6.851562 2.78125 -6.46875 C 2.582031 -6.082031 2.460938 -5.644531 2.421875 -5.15625 Z M 6.671875 -5.15625 "/></g></g></g><g fill="#6f4323" fill-opacity="1"><g transform="translate(212.988432, 263.55473)"><g><path d="M 0.390625 -0.875 L 1.90625 -0.875 L 1.90625 -7.515625 L 0.390625 -7.515625 L 0.390625 -8.390625 L 3.34375 -8.515625 L 3.5625 -6.6875 C 3.6875 -7.132812 3.921875 -7.550781 4.265625 -7.9375 C 4.453125 -8.144531 4.675781 -8.304688 4.9375 -8.421875 C 5.207031 -8.546875 5.5 -8.609375 5.8125 -8.609375 C 6.09375 -8.609375 6.347656 -8.554688 6.578125 -8.453125 C 6.816406 -8.347656 7.003906 -8.191406 7.140625 -7.984375 C 7.285156 -7.785156 7.359375 -7.546875 7.359375 -7.265625 C 7.359375 -7.003906 7.300781 -6.773438 7.1875 -6.578125 C 7.082031 -6.390625 6.9375 -6.242188 6.75 -6.140625 C 6.570312 -6.035156 6.375 -5.984375 6.15625 -5.984375 C 5.851562 -5.984375 5.59375 -6.078125 5.375 -6.265625 C 5.15625 -6.460938 5.046875 -6.71875 5.046875 -7.03125 C 5.046875 -7.125 5.070312 -7.226562 5.125 -7.34375 C 5.175781 -7.457031 5.226562 -7.550781 5.28125 -7.625 L 5.375 -7.71875 C 5.0625 -7.71875 4.785156 -7.617188 4.546875 -7.421875 C 4.304688 -7.234375 4.117188 -6.972656 3.984375 -6.640625 C 3.722656 -5.992188 3.59375 -5.28125 3.59375 -4.5 L 3.59375 -0.875 L 5.34375 -0.875 L 5.34375 0 L 0.390625 0 Z M 0.390625 -0.875 "/></g></g></g><g fill="#6f4323" fill-opacity="1"><g transform="translate(220.439737, 263.55473)"><g><path d="M 2.8125 3.65625 C 2.34375 3.65625 1.921875 3.578125 1.546875 3.421875 C 1.179688 3.273438 0.894531 3.070312 0.6875 2.8125 C 0.488281 2.550781 0.390625 2.25 0.390625 1.90625 C 0.390625 1.539062 0.507812 1.238281 0.75 1 C 0.988281 0.769531 1.316406 0.65625 1.734375 0.65625 C 2.046875 0.65625 2.285156 0.757812 2.453125 0.96875 C 2.617188 1.1875 2.703125 1.460938 2.703125 1.796875 C 2.703125 1.972656 2.640625 2.132812 2.515625 2.28125 C 2.398438 2.4375 2.242188 2.5625 2.046875 2.65625 C 2.265625 2.769531 2.4375 2.828125 2.5625 2.828125 C 3.03125 2.828125 3.421875 2.617188 3.734375 2.203125 C 4.046875 1.785156 4.285156 1.113281 4.453125 0.1875 L 1.34375 -7.515625 L -0.21875 -7.515625 L -0.21875 -8.390625 L 4.609375 -8.390625 L 4.609375 -7.515625 L 3.1875 -7.515625 L 5.453125 -1.375 L 7.390625 -7.515625 L 6.09375 -7.515625 L 6.09375 -8.390625 L 10.109375 -8.390625 L 10.109375 -7.515625 L 8.765625 -7.515625 L 6.078125 0.03125 C 5.773438 0.925781 5.460938 1.632812 5.140625 2.15625 C 4.816406 2.6875 4.46875 3.066406 4.09375 3.296875 C 3.71875 3.535156 3.289062 3.65625 2.8125 3.65625 Z M 2.8125 3.65625 "/></g></g></g></svg>